<svg width="14" height="12" viewBox="0 0 14 12" fill="none" xmlns="http://www.w3.org/2000/svg">
<path d="M13.75 5.99995C13.75 5.68353 13.5149 5.42204 13.2098 5.38065L13.125 5.37495L2.13833 5.37545L6.10749 1.42251C6.35209 1.17895 6.35294 0.783227 6.10939 0.538624C5.88798 0.316257 5.54081 0.295338 5.29574 0.476356L5.22551 0.53672L0.183845 5.55672C0.151603 5.58882 0.123597 5.62357 0.0998297 5.66026C0.0931158 5.67131 0.0862827 5.6826 0.0798035 5.69413C0.0738449 5.70401 0.0684605 5.71427 0.0633802 5.72464C0.056324 5.73973 0.0494308 5.75532 0.0431719 5.77123C0.0380859 5.7835 0.0338392 5.79543 0.0299664 5.80745C0.025362 5.82237 0.0208874 5.83826 0.0170393 5.85439C0.0141783 5.86565 0.0119123 5.87649 0.00993633 5.88738C0.00715637 5.90357 0.00479126 5.92032 0.00310326 5.93728C0.00164509 5.95021 0.000767708 5.96302 0.000283241 5.97585C0.00015831 5.98363 0 5.99177 0 5.99995L0.000313759 6.02416C0.000792503 6.03642 0.00162983 6.04868 0.00282764 6.06091L0 5.99995C0 6.03939 0.00365353 6.07797 0.0106401 6.11539C0.0122604 6.12432 0.0141907 6.1335 0.0163288 6.14263C0.0207682 6.16145 0.0258989 6.17956 0.0318069 6.19733C0.0347071 6.20615 0.038085 6.21558 0.0416946 6.22494C0.0489988 6.24375 0.0569372 6.26167 0.06567 6.27914C0.0697279 6.28735 0.0742712 6.29594 0.07903 6.30445C0.0868397 6.31834 0.0948858 6.33153 0.103395 6.34439C0.109397 6.35349 0.116045 6.36296 0.122986 6.37228L0.128395 6.37948C0.145233 6.40148 0.163501 6.42233 0.183058 6.44189L0.183808 6.44247L5.22547 11.4633C5.47006 11.7069 5.86578 11.7061 6.10936 11.4615C6.33079 11.2391 6.35024 10.8919 6.16819 10.6476L6.10753 10.5776L2.14 6.62545L13.125 6.62495C13.4702 6.62495 13.75 6.34512 13.75 5.99995Z" fill="#212121"/>
</svg>
